<svg width="103" height="103" viewBox="0 0 103 103" fill="none" xmlns="http://www.w3.org/2000/svg">
<path d="M34.458 50.625L47.333 63.5L68.7913 42.0417" stroke="#58F396" stroke-width="8.58333" stroke-linecap="round" stroke-linejoin="round"/>
<path d="M13 50.625C13 45.5527 13.9991 40.5301 15.9402 35.8439C17.8812 31.1577 20.7263 26.8997 24.313 23.313C27.8997 19.7263 32.1577 16.8812 36.8439 14.9402C41.5301 12.9991 46.5527 12 51.625 12C56.6973 12 61.7199 12.9991 66.4061 14.9402C71.0923 16.8812 75.3503 19.7263 78.937 23.313C82.5237 26.8997 85.3688 31.1577 87.3098 35.8439C89.2509 40.5301 90.25 45.5527 90.25 50.625C90.25 60.869 86.1806 70.6934 78.937 77.937C71.6934 85.1806 61.869 89.25 51.625 89.25C41.381 89.25 31.5566 85.1806 24.313 77.937C17.0694 70.6934 13 60.869 13 50.625V50.625Z" stroke="#6AFF8B" stroke-width="8.58333" stroke-linecap="round"/>
</svg>
