<svg width="79" height="80" viewBox="0 0 79 80" fill="none" xmlns="http://www.w3.org/2000/svg">
<path d="M39.1541 24.8361C35.1523 24.8361 31.3145 26.4258 28.4848 29.2554C25.6552 32.0851 24.0655 35.923 24.0655 39.9247C24.0655 43.9265 25.6552 47.7643 28.4848 50.594C31.3145 53.4236 35.1523 55.0133 39.1541 55.0133C43.1558 55.0133 46.9937 53.4236 49.8233 50.594C52.653 47.7643 54.2427 43.9265 54.2427 39.9247C54.2427 35.923 52.653 32.0851 49.8233 29.2554C46.9937 26.4258 43.1558 24.8361 39.1541 24.8361ZM39.1541 49.7238C36.5543 49.7238 34.0611 48.6911 32.2227 46.8528C30.3844 45.0145 29.3517 42.5212 29.3517 39.9214C29.3517 37.3217 30.3844 34.8284 32.2227 32.9901C34.0611 31.1518 36.5543 30.1191 39.1541 30.1191C41.7538 30.1191 44.2471 31.1518 46.0854 32.9901C47.9237 34.8284 48.9565 37.3217 48.9565 39.9214C48.9565 42.5212 47.9237 45.0145 46.0854 46.8528C44.2471 48.6911 41.7538 49.7238 39.1541 49.7238Z" fill="black"/>
<path d="M54.8398 27.799C56.7825 27.799 58.3574 26.2241 58.3574 24.2813C58.3574 22.3386 56.7825 20.7637 54.8398 20.7637C52.8971 20.7637 51.3222 22.3386 51.3222 24.2813C51.3222 26.2241 52.8971 27.799 54.8398 27.799Z" fill="black"/>
<path d="M67.0014 20.7049C66.246 18.7542 65.0916 16.9827 63.6122 15.5037C62.1327 14.0248 60.3607 12.8711 58.4097 12.1164C56.1266 11.2594 53.7146 10.796 51.2765 10.7459C48.1342 10.6089 47.1389 10.5697 39.1704 10.5697C31.2019 10.5697 30.1805 10.5697 27.0643 10.7459C24.628 10.7934 22.2177 11.2569 19.9376 12.1164C17.9861 12.8702 16.2136 14.0236 14.7341 15.5027C13.2545 16.9817 12.1004 18.7537 11.3459 20.7049C10.4887 22.9879 10.0263 25.4 9.97862 27.8381C9.8383 30.9772 9.79588 31.9725 9.79588 39.9442C9.79588 47.9127 9.79588 48.9276 9.97862 52.0504C10.0276 54.4912 10.4877 56.8993 11.3459 59.1868C12.1025 61.1373 13.2577 62.9086 14.7377 64.3875C16.2176 65.8663 17.9898 67.0201 19.9409 67.7753C22.2167 68.6668 24.6279 69.1634 27.0708 69.2437C30.2132 69.3807 31.2084 69.4232 39.1769 69.4232C47.1454 69.4232 48.1668 69.4232 51.2831 69.2437C53.7209 69.1941 56.1328 68.7318 58.4162 67.8764C60.3667 67.12 62.1382 65.9653 63.6175 64.486C65.0968 63.0067 66.2515 61.2352 67.008 59.2847C67.8662 57.0005 68.3263 54.5923 68.3752 52.1515C68.5155 49.0124 68.5579 48.0172 68.5579 40.0454C68.5579 32.0736 68.5579 31.0621 68.3752 27.9393C68.3372 25.4667 67.8725 23.0193 67.0014 20.7049ZM63.027 51.8089C63.0059 53.6894 62.6627 55.5525 62.0121 57.317C61.5221 58.5859 60.7719 59.7383 59.8098 60.6998C58.8477 61.6614 57.6949 62.4109 56.4257 62.9002C54.6807 63.5478 52.8375 63.891 50.9763 63.915C47.8764 64.0586 47.0019 64.0945 39.0529 64.0945C31.0975 64.0945 30.2849 64.0945 27.1263 63.915C25.266 63.8923 23.4237 63.549 21.6801 62.9002C20.4065 62.4139 19.2491 61.6658 18.2829 60.704C17.3166 59.7423 16.563 58.5884 16.0708 57.317C15.4295 55.5714 15.0864 53.7303 15.056 51.8709C14.9157 48.7709 14.8831 47.8964 14.8831 39.9475C14.8831 31.9953 14.8831 31.1828 15.056 28.0208C15.0771 26.1414 15.4204 24.2794 16.0708 22.516C17.0661 19.9414 19.1055 17.915 21.6801 16.9295C23.4246 16.2839 25.2664 15.9407 27.1263 15.9147C30.2295 15.7744 31.1007 15.7352 39.0529 15.7352C47.0051 15.7352 47.8209 15.7352 50.9763 15.9147C52.8376 15.9371 54.6811 16.2804 56.4257 16.9295C57.6948 17.4199 58.8474 18.1702 59.8095 19.1322C60.7715 20.0943 61.5218 21.2469 62.0121 22.516C62.6535 24.2616 62.9966 26.1027 63.027 27.9621C63.1673 31.0653 63.2032 31.9366 63.2032 39.8888C63.2032 47.8377 63.2032 48.6926 63.0629 51.8122H63.027V51.8089Z" fill="black"/>
</svg>
