<svg width="32" height="32" viewBox="0 0 32 32" fill="none" xmlns="http://www.w3.org/2000/svg">
<path d="M31.6522 14.1526H6.21397L21.4395 0.935639C21.683 0.722603 21.5352 0.326965 21.2134 0.326965H17.3657C17.1962 0.326965 17.0353 0.387832 16.9092 0.496524L0.479388 14.7525C0.32891 14.883 0.208227 15.0442 0.125516 15.2254C0.0428058 15.4065 0 15.6034 0 15.8025C0 16.0016 0.0428058 16.1985 0.125516 16.3796C0.208227 16.5608 0.32891 16.722 0.479388 16.8525L17.0049 31.1954C17.0701 31.2519 17.1484 31.2824 17.231 31.2824H21.2091C21.5308 31.2824 21.6786 30.8824 21.4352 30.6737L6.21397 17.4568H31.6522C31.8435 17.4568 32 17.3003 32 17.109V14.5004C32 14.3091 31.8435 14.1526 31.6522 14.1526Z" fill="#186974"/>
</svg>
