<svg width="84" height="84" viewBox="0 0 84 84" fill="none" xmlns="http://www.w3.org/2000/svg">
<path d="M76.1398 20.8215C73.6343 21.9023 70.9078 22.6801 68.0994 22.9831C71.0151 21.2508 73.1986 18.5142 74.2402 15.2866C71.5041 16.9142 68.5067 18.0556 65.381 18.6599C64.0746 17.2633 62.4946 16.1507 60.7394 15.3914C58.9842 14.6322 57.0915 14.2425 55.1791 14.2467C47.4416 14.2467 41.2189 20.5186 41.2189 28.2151C41.2189 29.2958 41.35 30.3766 41.5628 31.4165C29.9772 30.8106 19.6442 25.2757 12.7747 16.8013C11.523 18.9393 10.867 21.3736 10.8751 23.851C10.8751 28.6981 13.3396 32.9722 17.0978 35.4858C14.883 35.3986 12.7201 34.7898 10.785 33.7091V33.881C10.785 40.6687 15.5831 46.2937 21.9777 47.5873C20.777 47.8992 19.5419 48.0587 18.3014 48.0622C17.3926 48.0622 16.5328 47.9721 15.6649 47.8493C17.4335 53.3843 22.5836 57.4044 28.7162 57.5355C23.9182 61.2936 17.9084 63.5043 11.3827 63.5043C10.2119 63.5043 9.1311 63.4634 8.00938 63.3324C14.1993 67.3035 21.5438 69.596 29.4531 69.596C55.13 69.596 69.1802 48.3242 69.1802 29.8608C69.1802 29.2549 69.1802 28.649 69.1392 28.0431C71.8576 26.0535 74.2402 23.589 76.1398 20.8215Z" fill="black"/>
</svg>
